<svg xmlns="http://www.w3.org/2000/svg" viewBox="0 0 64 64" width="64" height="64" fill="none">
  <defs>
    <linearGradient id="g" x1="8" y1="10" x2="56" y2="54" gradientUnits="userSpaceOnUse">
      <stop stop-color="#e6f0ff"/>
      <stop offset="1" stop-color="#9bd0ff"/>
    </linearGradient>
  </defs>
  <rect x="8" y="8" width="48" height="48" rx="10" fill="#0b2233" opacity="0.92"/>
  <path d="M34.6 16.5c-.9-.5-2-.5-2.9 0l-2.8 1.5c-.6.3-1 .9-1 1.6v11.7L15.7 39c-.7.4-1.1 1.2-.9 2l.9 3.3c.2.8 1 1.3 1.8 1.2l10.4-1.8 0 6.1c0 .7.4 1.3 1 1.6l2.8 1.5c.9.5 2 .5 2.9 0l2.8-1.5c.6-.3 1-.9 1-1.6l0-6.1 10.4 1.8c.8.1 1.6-.4 1.8-1.2l.9-3.3c.2-.8-.2-1.6-.9-2L38.5 33.3V21.6c0-.7-.4-1.3-1-1.6l-2.9-1.5Z" fill="url(#g)"/>
  <path d="M31.2 28.6h1.6" stroke="#0b2233" stroke-width="2" stroke-linecap="round" opacity=".7"/>
  <path d="M25 47.8l3.7-.6m10.6.6l-3.7-.6" stroke="#0b2233" stroke-width="2" stroke-linecap="round" opacity=".55"/>
</svg>
